<?xml version="1.0" encoding="utf-8"?>
<!DOCTYPE svg PUBLIC "-//W3C//DTD SVG 1.0//EN" "http://www.w3.org/TR/2001/REC-SVG-20010904/DTD/svg10.dtd">
<svg version="1.0" xmlns="http://www.w3.org/2000/svg" width="786px" height="762px" viewBox="0 0 786 762" preserveAspectRatio="xMidYMid meet">
 <g fill="#fafbfb">
  <path d="M0 381 l0 -381 393 0 393 0 0 381 0 381 -393 0 -393 0 0 -381z m642.70 358.90 c0.70 -0.30 1.75 -1.50 2.30 -2.65 0.90 -1.85 1 -3.05 1 -12.65 l0 -10.60 1.90 0 c1.55 0 2.25 0.35 3.85 2.05 1.10 1.10 3.25 2.70 4.75 3.60 2.45 1.40 3.15 1.60 6.75 1.55 5.30 0 8.80 -1.40 12.70 -4.95 4.65 -4.30 8.05 -12.65 8.05 -19.70 0 -3.35 -1.45 -9.15 -3.05 -12.40 -3.95 -7.85 -12.70 -12.70 -20 -11.20 -3.20 0.70 -8.05 3.65 -10.15 6.25 -1.10 1.45 -1.75 1.80 -3.10 1.80 -1.60 0 -1.70 -0.10 -1.70 -1.80 0 -4.10 -3.15 -7.40 -5.95 -6.20 -0.75 0.30 -1.80 1.25 -2.35 2.15 -0.90 1.55 -0.95 2.65 -0.85 31.05 0.10 19.65 0.30 30.05 0.70 31.15 0.50 1.65 2.10 3.15 3.30 3.15 0.35 0 1.15 -0.25 1.85 -0.60z m-521.60 -19.40 c2.85 -2.20 2.90 -2.70 2.90 -23.85 0 -18.35 -0.05 -19.50 -1 -21 -0.50 -0.90 -1.65 -1.95 -2.50 -2.40 -1.45 -0.75 -1.65 -0.75 -3.15 0.10 -3.30 1.90 -3.35 2.30 -3.35 23.15 0 11.30 0.20 19.50 0.50 20.60 0.55 1.90 3.10 4.40 4.55 4.40 0.45 0 1.40 -0.45 2.05 -1z m26.30 -0.70 l1.85 -1.70 0.30 -14.20 c0.30 -15.40 0.60 -17.40 3 -20.15 2.90 -3.25 4.65 -4 9.70 -4 5.45 0 7 0.65 8.75 3.75 1.25 2.25 1.25 2.35 1.55 17.75 0.15 9.65 0.45 16 0.80 16.80 0.70 1.60 2.95 3.45 4.20 3.45 1.80 0 4.05 -2.65 4.50 -5.30 0.50 -3.20 0.50 -20.95 0 -27.70 -0.60 -7.80 -3.05 -11.65 -9 -14.40 -6 -2.75 -13.45 -1.15 -18.60 4.05 -1.75 1.75 -2.70 2.35 -3.80 2.35 -1.40 0 -1.55 -0.20 -1.85 -2.05 -0.90 -5.60 -5.55 -7.50 -8.10 -3.30 -0.90 1.50 -0.95 2.80 -0.95 21.60 0 19.80 0 20 1.10 21.80 1.10 1.70 2.65 2.85 4.05 2.90 0.35 0.05 1.45 -0.70 2.50 -1.65z m58.80 0.15 c2.30 -2 2.80 -3.95 2.80 -10.65 l0 -5.45 3.15 -2.90 c2.55 -2.40 3.40 -2.90 4.90 -2.95 l1.80 0 6.30 10.15 c6.50 10.45 8.75 13.35 10.30 13.35 1.30 0 3.30 -1.70 4.05 -3.45 0.55 -1.40 0.40 -1.75 -2.20 -6.15 -1.55 -2.55 -5.05 -8.10 -7.80 -12.30 -4.15 -6.35 -5 -8.05 -5 -9.60 0 -1.50 0.30 -2.15 1.40 -3 2.60 -2.05 9.55 -9.10 9.85 -10 0.40 -1.35 -0.50 -2.85 -2.25 -3.75 -2.40 -1.25 -1.70 -1.85 -16 13.15 -4.55 4.70 -5.65 5.60 -6.95 5.60 l-1.50 0 -0.15 -17.10 c-0.15 -16.80 -0.15 -17.20 -1.25 -18.70 -0.60 -0.85 -1.80 -1.85 -2.65 -2.20 -1.40 -0.55 -1.70 -0.55 -2.90 0.35 -0.75 0.55 -1.75 1.75 -2.20 2.70 -0.85 1.55 -0.90 4.10 -0.90 30.60 0 31.60 -0.05 31.15 2.90 32.95 1.85 1.20 2.30 1.15 4.30 -0.65z m80.75 -0.10 c2.55 -2.35 2.55 -2.30 2.55 -32 0 -15.25 -0.15 -28.40 -0.30 -29.30 -0.35 -1.70 -2.30 -3.95 -4.10 -4.60 -0.85 -0.30 -1.70 -0.15 -3.05 0.55 -3.60 1.80 -3.55 1.40 -3.55 32.65 0 17.20 0.20 28.30 0.50 29.45 0.30 1.05 1.30 2.50 2.30 3.40 2.05 1.80 3.55 1.75 5.65 -0.15z m44.05 0.85 c0.75 -0.45 1.80 -1.55 2.30 -2.40 0.90 -1.45 0.95 -3.10 1.10 -27.65 l0.15 -26.10 9.45 -0.15 9.45 -0.15 1.50 -1.45 c2 -1.95 2 -3.65 0 -5.60 l-1.50 -1.45 -23.85 -0.15 c-23.15 -0.10 -23.90 -0.10 -25.50 0.90 -3.30 2 -3.30 5 0 7 1.50 0.90 2.55 1 10.55 1 l8.85 0 0 25.60 c0 24.45 0.05 25.70 1 27.60 0.95 2 3.05 3.75 4.40 3.80 0.40 0 1.30 -0.35 2.10 -0.80z m167.25 0.05 c3.60 -0.95 5.30 -2 8.25 -4.95 1.85 -1.85 2.60 -2.30 4.05 -2.30 l1.80 0 0.25 2.60 c0.25 2.20 0.55 2.85 1.95 4 2.15 1.80 2.90 1.75 5 -0.40 l1.70 -1.75 0 -20.70 c0 -20.20 0 -20.70 -1.05 -22.10 -1.65 -2.20 -3.35 -2.85 -5.20 -1.90 -3.15 1.65 -3.20 2 -3.50 18 -0.25 14 -0.30 14.60 -1.45 16.90 -2.20 4.45 -6.55 6.60 -12.65 6.25 -7.65 -0.40 -8.90 -3.80 -8.90 -24.70 0 -12.25 -0.05 -12.60 -1.15 -14.25 -0.60 -0.95 -1.75 -2 -2.50 -2.35 -1.20 -0.60 -1.60 -0.55 -3 0.25 -2.80 1.65 -2.85 2.15 -2.95 19 -0.05 17.55 0.30 19.90 3.45 23.65 4.10 4.75 9.55 6.40 15.90 4.75z m45.20 0.05 c3.10 -1.65 3.25 -2.25 3.60 -16.80 0.35 -13.40 0.70 -16.05 2.45 -19.55 1.95 -3.75 6.55 -4.85 13.30 -3.15 3.25 0.85 3.25 0.85 4.45 -0.30 1.95 -1.80 2.05 -2.90 0.40 -4.60 -1.75 -1.85 -3.40 -2.70 -6.40 -3.40 -3.65 -0.80 -5.65 0 -8.95 3.50 -2.20 2.40 -3.05 3 -4.25 3 -1.25 0 -1.60 -0.25 -1.80 -1.35 -0.15 -0.80 -0.65 -2.10 -1.05 -2.95 -1.80 -3.60 -5.90 -3.10 -7.40 0.90 -0.75 1.90 -0.85 4.45 -0.70 22.05 l0.15 19.95 1.85 1.70 c2.15 1.90 2.40 2 4.35 1z m62.10 0 c4.65 -1 8.20 -2.95 11.55 -6.40 4.70 -4.75 6.95 -10.45 7 -17.35 0.05 -10.80 -5.90 -19.50 -15.90 -23.10 -3.95 -1.45 -11.25 -1.55 -15.20 -0.25 -12.40 4.10 -18.90 16.25 -15.80 29.50 1.10 4.60 2.95 7.95 6.35 11.35 5.85 5.85 13.50 8.05 22 6.25z m122.20 -0.80 c5.35 -1.85 10.40 -6.05 11.55 -9.60 0.35 -1.15 -1.05 -2.90 -2.30 -2.90 -0.50 0 -2.30 1.15 -4.05 2.55 -5.70 4.55 -7.35 5.15 -13.70 5.20 -4.40 0 -5.85 -0.20 -7.25 -0.95 -4.40 -2.30 -7 -6.80 -7 -12.05 l0 -2.70 15.40 -0.15 c16.50 -0.15 17.25 -0.30 18.95 -2.85 0.55 -0.90 0.80 -2.25 0.75 -4.50 0 -2.60 -0.35 -3.90 -1.85 -6.90 -6 -12.15 -20.65 -16.10 -32.95 -8.90 -7.50 4.40 -11.85 15.15 -10.10 25.10 1.80 10.30 8.95 17.95 18.40 19.60 3.85 0.70 10.65 0.25 14.15 -0.95z m-628.60 0.05 c3.15 -1.20 4.30 -4.50 2.25 -6.40 -2.30 -2.10 -2.85 -2.15 -18.35 -2.15 l-15 0 -0.15 -26.35 c-0.15 -25.45 -0.20 -26.45 -1.15 -28.15 -0.55 -0.95 -1.85 -2.15 -2.85 -2.65 -1.70 -0.85 -1.90 -0.85 -3.50 -0.05 -3.55 1.65 -3.40 0.35 -3.40 32.80 0 32.20 -0.20 30.40 3.20 32.45 1.45 0.90 2.70 0.95 19.65 0.95 10.05 0 18.65 -0.20 19.30 -0.45z m365.15 -1.25 c0.95 -0.95 1.70 -1.95 1.70 -2.25 0 -0.30 -0.65 -1.25 -1.45 -2.15 l-1.45 -1.65 -18.05 -0.15 -18.05 -0.15 0 -10.95 0 -11 15.65 0 c14.65 0 15.70 -0.05 17.20 -1 2.65 -1.60 2.65 -4.60 0 -6.10 -0.80 -0.50 -5.40 -0.70 -16.85 -0.90 l-15.75 -0.25 -0.15 -9.35 -0.10 -9.35 17.45 -0.15 17.45 -0.15 1.25 -1.15 c1.65 -1.55 1.90 -2.80 1 -4.10 -1.65 -2.40 -2.85 -2.50 -23.25 -2.50 -18.05 0 -19.20 0.05 -21.15 1 -3.85 1.85 -3.75 0.95 -3.75 31.65 0.05 30.25 0 29.55 3.50 31.45 1.60 0.85 3.25 0.90 22.40 0.90 l20.70 0 1.70 -1.70z m-342.20 -56.15 c0.75 -0.75 1.50 -1.75 1.70 -2.25 0.50 -1.60 -0.75 -3.70 -2.80 -4.85 -1.80 -1 -2.10 -1.05 -3.35 -0.35 -3.85 1.95 -4.40 4.95 -1.45 7.65 2.20 2 3.65 1.95 5.90 -0.20z m326.40 -61.65 c4 -0.25 14 -0.95 22.25 -1.50 8.25 -0.55 17.60 -1.15 20.75 -1.35 l5.75 -0.40 0.40 -4.75 c0.45 -5.45 0.25 -97.75 -0.20 -98.25 -0.20 -0.15 -16.05 -0.10 -35.25 0.10 l-34.95 0.40 -0.15 48.80 -0.10 48.85 1.35 2.60 c2.40 4.60 5.95 6.65 10.65 6.20 1.25 -0.10 5.50 -0.40 9.50 -0.70z m-110.10 -0.45 c2.20 -1.15 4.15 -3.15 5.35 -5.55 0.80 -1.60 0.90 -5.10 0.95 -50.55 0 -26.90 -0.05 -48.95 -0.20 -49.10 -0.15 -0.10 -16.05 -0.35 -35.40 -0.55 l-35.10 -0.35 0.10 51.65 0.15 51.65 13.50 0.85 c7.45 0.50 19.80 1.30 27.50 1.85 18.90 1.25 20.85 1.25 23.15 0.10z m215.60 -6.55 c8.10 -0.55 20.50 -1.35 27.50 -1.80 7 -0.40 13.55 -0.90 14.50 -1.10 l1.75 -0.35 0.10 -48 c0.10 -26.40 -0.05 -48.20 -0.25 -48.50 -0.20 -0.35 -10.90 -0.40 -31.35 -0.20 -17.05 0.15 -31.05 0.30 -31.10 0.35 -0.10 0.05 -0.15 22.80 -0.15 50.55 l0 50.45 2.15 -0.20 c1.15 -0.15 8.75 -0.65 16.85 -1.20z m-317.35 -49.05 c-0.10 -27.50 -0.25 -50.20 -0.40 -50.40 -0.25 -0.45 -60.35 -1.15 -61.50 -0.75 -0.65 0.30 -0.75 5.50 -0.75 48.70 l0 48.45 2.15 0.25 c1.15 0.15 4.25 0.35 6.85 0.50 4.35 0.25 27.35 1.75 41.75 2.75 3.30 0.20 7.35 0.45 9 0.50 l3 0.05 -0.10 -50.05z m-96.15 -3.60 l0 -47.70 -13.60 -0.30 c-7.45 -0.20 -20.05 -0.35 -28 -0.35 l-14.40 0 0.10 46.15 0.15 46.10 9.50 0.65 c5.25 0.35 17.25 1.15 26.75 1.80 9.50 0.65 17.75 1.20 18.40 1.25 l1.10 0.05 0 -47.65z m508.50 46.35 c5.90 -0.40 14.65 -0.95 19.45 -1.25 4.80 -0.30 10.95 -0.70 13.75 -0.85 l5.05 -0.35 0.15 -45.70 c0.05 -25.15 -0.05 -45.90 -0.25 -46.10 -0.25 -0.20 -12.85 -0.25 -28 -0.10 l-27.65 0.30 0 47.60 0 47.55 3.40 -0.15 c1.85 -0.10 8.20 -0.55 14.10 -0.95z m78.05 -5.15 c21.50 -1.40 31.35 -2.15 33.15 -2.60 1.25 -0.35 2.80 -1.40 4.35 -3 1.90 -1.95 2.50 -2.95 2.90 -5.05 0.55 -2.75 0.55 -78.05 0 -78.60 -0.15 -0.15 -11.40 -0.10 -25 0.10 l-24.70 0.35 -0.05 44.50 c-0.05 24.50 0.05 44.65 0.15 44.90 0.10 0.20 0.40 0.25 0.60 0.15 0.20 -0.15 4.05 -0.50 8.60 -0.75z m-673.05 -44.20 l0 -44.70 -15.85 -0.30 c-8.70 -0.20 -19.95 -0.35 -25 -0.35 l-9.15 0 0 39.40 c0 37.15 0.05 39.45 0.95 41.35 1.25 2.70 3.15 4.60 5.70 5.75 1.70 0.75 4.75 1.15 14.40 1.75 6.70 0.45 14.55 1 17.45 1.20 2.90 0.25 6.65 0.45 8.40 0.50 l3.10 0.05 0 -44.65z m-20.40 -94.45 l20.40 -0.60 0 -44.90 0 -44.90 -2.65 0 c-1.45 0 -6.45 0.30 -11.10 0.70 -4.70 0.40 -12.10 1 -16.50 1.30 -4.40 0.35 -10.60 0.85 -13.75 1.20 l-5.75 0.60 -0.15 43.60 -0.10 43.60 4.60 0 c2.55 0 13.80 -0.25 25 -0.60z m734.15 -6 c0.35 -7.35 0.15 -80.20 -0.25 -80.55 -0.25 -0.20 -7.25 -0.80 -36.50 -3.10 -5.10 -0.40 -10.10 -0.85 -11.10 -0.95 l-1.90 -0.20 0 45.20 0 45.20 4.65 0.05 c6.75 0.10 37.55 0.75 41.40 0.85 l3.35 0.10 0.35 -6.60z m-649.75 3.70 c11.70 -0.20 21.55 -0.55 21.90 -0.80 0.45 -0.30 0.60 -10.65 0.60 -47.35 l0 -46.95 -2.10 0 c-2.55 0 -19.60 1.30 -26.40 2 -2.60 0.25 -9.70 0.85 -15.75 1.30 -6.05 0.45 -11.15 0.90 -11.35 1.05 -0.25 0.10 -0.40 20.75 -0.40 45.80 l0 45.60 6.10 -0.15 c3.40 -0.05 15.70 -0.30 27.40 -0.50z m569.10 -45.35 l0.15 -45.50 -9.25 -0.80 c-19.10 -1.65 -46 -3.65 -46.20 -3.40 -0.25 0.25 -0.40 25.25 -0.35 65.75 l0.05 28.60 6.15 0.30 c9.20 0.45 48.55 1.10 48.95 0.80 0.20 -0.15 0.40 -20.75 0.50 -45.75z m-460.35 43.30 l9.50 -0.30 0.25 -49.90 c0.15 -27.40 0.20 -50.10 0.10 -50.35 -0.25 -0.65 -2.25 -0.65 -7.35 0 -2.20 0.25 -7.50 0.70 -11.75 1 -4.25 0.30 -10.10 0.75 -13 1 -2.90 0.30 -9.85 0.85 -15.50 1.25 -5.65 0.40 -11.30 0.90 -12.60 1.05 l-2.40 0.35 0 48.10 c0 26.45 0.15 48.25 0.40 48.45 0.35 0.40 33.35 -0.05 52.35 -0.65z m371.15 -47.40 l-0.15 -48.40 -2.25 -0.35 c-1.25 -0.20 -8.45 -0.80 -16 -1.40 -7.55 -0.55 -16.10 -1.25 -19 -1.50 -2.90 -0.25 -8.40 -0.70 -12.25 -1 -3.85 -0.25 -8.40 -0.65 -10.10 -0.80 l-3.15 -0.30 0 50.25 0 50.30 1.65 0.30 c1.45 0.25 34.05 0.95 53.50 1.15 l7.85 0.10 -0.10 -48.35z m-274.45 45.35 c11.40 -0.30 20.85 -0.65 21 -0.80 0.45 -0.45 0.65 -101.60 0.20 -104.45 l-0.40 -2.50 -10.50 0.85 c-5.75 0.45 -15.10 1.20 -20.75 1.65 -5.65 0.45 -14.05 1.15 -18.75 1.55 -4.65 0.40 -11.10 0.90 -14.25 1.10 l-5.75 0.35 -0.15 51.70 -0.10 51.70 14.35 -0.35 c7.95 -0.15 23.70 -0.55 35.10 -0.80z m174.20 -3.10 c0.20 -2.30 0.35 -25.35 0.35 -51.30 l0 -47.10 -1.10 -0.45 c-0.65 -0.25 -6.30 -0.85 -12.65 -1.30 -6.30 -0.45 -15 -1.10 -19.25 -1.50 -4.25 -0.40 -12.70 -1.05 -18.75 -1.50 -6.05 -0.45 -12.85 -1 -15.10 -1.20 l-4.15 -0.35 0 53.60 0 53.55 3.40 0.30 c1.85 0.20 9.45 0.35 16.85 0.40 7.45 0.05 17.90 0.25 23.25 0.45 5.35 0.15 13.60 0.35 18.30 0.40 l8.55 0.10 0.30 -4.10z m-467 -128.40 c12.35 -1.35 22.65 -2.50 22.90 -2.50 0.25 0 0.45 -17.40 0.45 -45 0 -24.75 -0.20 -45 -0.40 -45 -0.25 0 -3.70 0.55 -7.65 1.25 -3.95 0.65 -13.25 2.25 -20.60 3.50 -13.85 2.35 -16 3 -18.45 5.60 -3 3.15 -2.90 1.40 -2.90 45.20 l0 40.05 2.15 -0.30 c1.15 -0.15 12.20 -1.40 24.50 -2.80z m737.05 1.15 c0.45 -2.95 0.30 -73.50 -0.20 -77.35 -0.25 -2 -0.85 -4 -1.35 -4.75 -1.70 -2.30 -5.35 -4.40 -8.75 -5 -14.15 -2.55 -39.05 -6.55 -39.25 -6.35 -0.50 0.50 -0.80 89.15 -0.30 89.45 0.25 0.15 6.65 1 14.20 1.80 7.55 0.85 15.75 1.75 18.20 2.10 5.70 0.70 15.25 1.80 16.30 1.90 0.55 0.05 0.90 -0.50 1.15 -1.80z m-656.75 -9.90 c13.90 -1.50 26.20 -2.80 27.30 -2.85 l2 -0.15 0.15 -47.60 c0.05 -26.20 -0.10 -47.65 -0.30 -47.65 -0.20 0 -9.05 1.45 -19.65 3.25 -10.55 1.80 -22.95 3.85 -27.55 4.60 l-8.40 1.35 0 45.90 c0 34.65 0.15 45.90 0.60 45.90 0.30 0 11.95 -1.25 25.85 -2.75z m576.45 -43.10 l-0.15 -45.90 -9.50 -1.60 c-5.20 -0.85 -17.60 -2.95 -27.45 -4.60 -9.90 -1.70 -18.15 -3.05 -18.40 -3.05 -0.20 0 -0.35 21.45 -0.30 47.65 l0.15 47.60 2.50 0.15 c1.40 0.10 13.10 1.35 26 2.85 12.95 1.45 24.35 2.65 25.40 2.70 l1.85 0.05 -0.10 -45.85z m-507.30 35.35 c2 -0.25 8.85 -1.05 15.15 -1.75 6.35 -0.75 14.90 -1.75 19 -2.25 4.15 -0.55 10.20 -1.20 13.55 -1.50 6.30 -0.55 8.65 -1 8.70 -1.60 0 -0.25 0 -22.80 0 -50.15 0 -39.55 -0.15 -49.65 -0.60 -49.50 -0.35 0.10 -4.15 0.80 -8.40 1.50 -4.25 0.65 -8.75 1.45 -10 1.70 -3.70 0.75 -7.65 1.45 -20 3.55 -6.45 1.10 -14.40 2.50 -17.60 3.05 l-5.90 1.10 0 48.15 0 48.20 1.25 0 c0.65 0 2.85 -0.20 4.85 -0.50z m417.80 -47.45 c0.05 -26.25 -0.05 -47.90 -0.25 -48.10 -0.25 -0.20 -8.95 -1.85 -19.40 -3.65 -10.45 -1.80 -23.50 -4.10 -29 -5.05 -5.50 -1 -10.95 -1.90 -12.10 -2.10 l-2.15 -0.30 0 49.80 c0 27.40 0.20 49.90 0.40 50.05 0.20 0.10 5.65 0.85 12.10 1.60 6.45 0.75 19.95 2.30 30 3.45 10.05 1.20 18.70 2.10 19.25 2.10 1 -0.10 1 -0.50 1.15 -47.80z m-304.65 35.20 c9.10 -1 23.50 -2.55 32 -3.50 8.55 -0.95 16.30 -1.75 17.25 -1.85 l1.75 -0.15 0.30 -8 c0.20 -6.85 0.05 -98.85 -0.20 -99.05 -0.05 -0.05 -3.80 0.55 -8.35 1.30 -4.55 0.75 -15.20 2.55 -23.75 3.95 -8.50 1.45 -20.55 3.45 -26.75 4.50 l-11.25 1.90 -0.15 51.55 -0.10 51.60 1.35 -0.25 c0.80 -0.15 8.85 -1.05 17.90 -2z m204.45 0.40 c0.40 -2.50 0.30 -95.10 -0.10 -98.65 l-0.35 -2.75 -29 -4.85 c-15.95 -2.70 -31.25 -5.25 -33.95 -5.65 -2.75 -0.45 -5.50 -0.90 -6.15 -1.05 l-1.15 -0.30 0 53.50 0 53.55 2.15 0.25 c4.30 0.60 19.55 2.35 35.60 4.05 29 3.15 30.50 3.30 31 3.50 1.25 0.45 1.65 0.10 1.95 -1.60z m-385.20 -125.65 c14.15 -2.75 26.25 -5.15 26.90 -5.25 l1.10 -0.25 0 -47.45 0 -47.40 -14.60 3.70 c-23.15 5.80 -34.05 8.75 -35.45 9.45 -2 1 -4.85 4.45 -5.40 6.55 -0.35 1.25 -0.55 15.90 -0.55 44.10 l0 42.15 1.15 -0.25 c0.60 -0.15 12.70 -2.55 26.85 -5.35z m574.90 -37.35 c-0.15 -42.85 -0.15 -42.90 -1.25 -44.90 -2.45 -4.60 -3.80 -5.15 -23.95 -10.25 -8.75 -2.25 -19.25 -4.95 -23.30 -6 -4.10 -1.05 -7.40 -1.75 -7.40 -1.60 0 0.20 0 21.50 0 47.35 0 36.80 0.15 47.05 0.65 47.30 0.30 0.20 9.40 2.05 20.10 4.15 10.75 2.10 22.55 4.50 26.25 5.30 3.70 0.75 7.25 1.45 7.90 1.45 l1.15 0.05 -0.15 -42.85z m-492.40 21.15 c28.65 -5.70 39.65 -7.80 40.60 -7.80 0.85 0 0.90 -2.95 1 -50.10 0.10 -27.60 0 -50.30 -0.15 -50.55 -0.25 -0.35 -8.50 1.60 -20.70 4.90 -2.45 0.70 -7.20 1.90 -10.50 2.70 -3.30 0.85 -9.80 2.50 -14.50 3.70 -4.65 1.20 -10.05 2.55 -11.95 3 -1.90 0.45 -3.75 1.10 -4.10 1.40 -0.60 0.50 -0.70 8.80 -0.70 48.75 l0 48.20 1.15 -0.25 c0.60 -0.15 9.55 -1.90 19.85 -3.95z m402.95 -44.90 c0.05 -25.75 -0.10 -47.15 -0.25 -47.60 -0.15 -0.45 -0.75 -0.80 -1.30 -0.80 -0.50 0 -10.10 -2.35 -21.30 -5.20 -11.20 -2.90 -24.50 -6.30 -29.55 -7.55 -5.05 -1.30 -9.50 -2.45 -9.90 -2.60 -0.55 -0.20 -0.65 8.25 -0.65 50.05 0 27.65 0.15 50.30 0.40 50.35 0.20 0 14.20 2.75 31.10 6.10 29.85 5.95 30.75 6.10 31.10 5.10 0.15 -0.55 0.30 -22.10 0.35 -47.85z m-295.45 23.60 c14.15 -2.75 28.45 -5.60 31.75 -6.35 3.30 -0.75 6.85 -1.40 7.90 -1.55 1 -0.10 2 -0.40 2.15 -0.65 0.15 -0.25 0.25 -21.90 0.30 -48.10 0 -47.40 0 -47.65 -1 -49.70 -1.35 -2.60 -4.10 -4.90 -6.80 -5.65 -1.80 -0.50 -2.75 -0.45 -6.10 0.40 -4.50 1.10 -52.65 13.40 -54.95 14 l-1.50 0.40 -0.15 51.40 -0.10 51.40 1.35 -0.30 c0.80 -0.15 13 -2.55 27.15 -5.30z m195.20 3.20 c0.15 -1.30 0.30 -24.25 0.30 -51 l0 -48.65 -1.10 -0.60 c-1.05 -0.55 -26.75 -7.25 -50 -13.05 l-10.30 -2.55 -2.20 0.80 c-2.85 1.10 -6.25 4.50 -6.90 6.85 -0.35 1.20 -0.45 18.85 -0.40 49.30 l0.15 47.45 8.25 1.65 c20.40 4.10 60.35 12 61.05 12.05 0.60 0.05 0.90 -0.55 1.15 -2.25z"/>
  <path d="M655.50 713.90 c-2.55 -0.70 -6.30 -4.60 -7.60 -7.90 -1.45 -3.70 -1.60 -13.90 -0.20 -17.75 1.95 -5.30 5.60 -8.20 11.05 -8.65 9.80 -0.75 15.25 5.30 15.25 17 0 9.25 -3.40 15.85 -9 17.40 -2.20 0.60 -7.20 0.55 -9.50 -0.10z"/>
  <path d="M595.55 714.15 c-1.85 -0.35 -4.80 -2.40 -6 -4.10 -2.25 -3.15 -3.20 -6.90 -3.20 -13.05 -0.05 -6.15 0.80 -9.75 3.15 -13 3.90 -5.50 15.40 -6.10 20.45 -1.05 3.15 3.15 4.05 6.35 4.05 14.20 -0.05 4.25 -0.30 7.30 -0.70 8.50 -1.10 3 -3.30 5.80 -5.75 7.25 -1.90 1.10 -2.90 1.30 -6.50 1.40 -2.35 0.05 -4.85 0 -5.50 -0.15z"/>
  <path d="M705 692.10 c0 -2.85 1.45 -7.40 3 -9.50 0.60 -0.80 2.05 -2 3.15 -2.65 1.80 -1 2.75 -1.20 6.60 -1.20 7.25 0 10.60 2.25 12.50 8.50 0.40 1.40 0.75 3.55 0.75 4.90 l0 2.35 -13 0 -13 0 0 -2.40z"/>
 </g>
 <g fill="#f39a1b">
  <path d="M637.65 741.25 c-2.25 -1.60 -2.35 -2.65 -2.35 -35.25 -0.05 -29.45 0 -30.80 0.90 -32.35 1.15 -1.85 2.70 -2.65 5.10 -2.65 3.70 0 6.20 2.75 6.20 6.75 l0 1.85 2.65 -2.70 c3.65 -3.65 7.30 -5.40 11.95 -5.75 11.20 -0.85 20.20 6.40 22.65 18.25 2.20 10.80 -0.75 22.25 -7.30 28.35 -4.25 3.90 -7.30 5 -14.20 5 -5.30 0 -5.60 -0.05 -8.25 -1.60 -1.50 -0.85 -3.65 -2.50 -4.75 -3.60 -1.05 -1.15 -2.15 -2.05 -2.35 -2.05 -0.20 0 -0.40 4.75 -0.40 10.60 0 9.60 -0.10 10.80 -1 12.65 -0.55 1.15 -1.60 2.35 -2.30 2.65 -1.75 0.85 -5.30 0.75 -6.55 -0.15z m25.85 -28.75 c6.65 -1.85 10.65 -12 8.25 -21.15 -2.30 -8.80 -10 -12.70 -17.05 -8.60 -4.40 2.60 -6.35 7 -6.35 14.25 0 6.10 1.15 9.30 4.50 12.60 3.20 3.10 6.60 4.05 10.65 2.90z"/>
  <path d="M115.15 721.70 c-0.95 -0.70 -1.85 -2 -2.15 -3.10 -0.30 -1.15 -0.50 -9.75 -0.50 -22 0 -22.25 0.05 -22.75 3.10 -24.60 3.10 -1.90 7.05 -0.95 8.90 2.15 0.95 1.50 1 2.65 1 22.50 0 22.80 -0.05 23.15 -2.90 25.35 -1.85 1.50 -5.40 1.35 -7.45 -0.30z"/>
  <path d="M141.60 722.40 c-0.60 -0.30 -1.60 -1.35 -2.25 -2.35 -1.10 -1.80 -1.10 -1.90 -1.10 -23.30 0 -20.30 0.05 -21.60 0.95 -23.10 1.10 -1.80 2.65 -2.65 4.85 -2.65 3.25 0 5.65 2.30 6.25 5.95 l0.35 2.05 2.30 -2.30 c1.25 -1.30 3.75 -3.05 5.55 -3.90 2.95 -1.40 3.70 -1.55 8.25 -1.55 4.35 0 5.35 0.20 7.80 1.30 5.20 2.45 8.20 6.55 8.90 12.20 0.50 4.40 0.70 27.75 0.25 31.75 -0.30 2.75 -0.60 3.50 -2 4.90 -1.35 1.35 -1.95 1.60 -4.10 1.60 -2.75 0 -4.80 -1.20 -5.75 -3.45 -0.35 -0.80 -0.65 -7.15 -0.80 -16.80 -0.30 -15.40 -0.30 -15.50 -1.55 -17.75 -1.60 -2.80 -3.40 -3.75 -7.30 -3.70 -3.45 0 -5.60 1.10 -8.15 3.95 -2.40 2.75 -2.70 4.75 -3 20.15 l-0.30 14.20 -1.85 1.70 c-1.55 1.40 -2.25 1.70 -4 1.65 -1.20 0 -2.65 -0.25 -3.30 -0.55z"/>
  <path d="M200.40 722.10 c-2.95 -1.80 -2.90 -1.20 -2.90 -34.30 0 -32.90 -0.05 -32.50 2.75 -34.70 2.60 -2.05 7.05 -1.15 9.05 1.75 0.90 1.30 0.95 2.70 1.10 18.55 l0.15 17.15 5.40 -5.65 c13.85 -14.45 13.20 -13.90 16.15 -13.90 3.95 0 6.65 3.70 5.25 7.10 -0.65 1.55 -6.75 7.90 -9.95 10.40 -0.80 0.60 -1.40 1.25 -1.40 1.50 0 0.20 2.25 3.85 5 8.10 10.90 16.75 11.60 18.35 9.75 21.90 -1.10 2.10 -2.65 3 -5.35 3 -3.20 0 -4 -0.95 -11.75 -13.35 -3.45 -5.60 -6.45 -10.15 -6.60 -10.15 -0.15 0 -1.70 1.35 -3.40 2.95 l-3.15 2.90 0 5.45 c0 6.70 -0.50 8.65 -2.80 10.65 -2.05 1.80 -5.05 2.10 -7.30 0.65z"/>
  <path d="M279.85 721.50 c-1.05 -0.90 -2.05 -2.35 -2.35 -3.40 -0.30 -1.15 -0.50 -12.75 -0.50 -30.95 0 -25.75 0.10 -29.35 0.80 -31.15 1.95 -4.85 9.25 -5.30 12.30 -0.75 0.50 0.80 0.70 6.90 0.80 31 0.10 19.65 0 30.60 -0.35 31.75 -0.85 2.90 -3.05 4.65 -6.20 4.90 -2.45 0.20 -2.85 0.10 -4.50 -1.40z"/>
  <path d="M325.35 722.10 c-0.75 -0.45 -1.80 -1.75 -2.35 -2.90 -0.95 -1.90 -1 -3.15 -1 -27.60 l0 -25.60 -8.75 0 c-9.40 0 -10.85 -0.30 -12.45 -2.60 -1.15 -1.60 -1.05 -5.45 0.20 -7 1.85 -2.40 2.15 -2.45 28.90 -2.30 l25.10 0.15 1.60 1.60 c1.35 1.40 1.60 1.95 1.60 4.15 0 2.20 -0.25 2.75 -1.60 4.15 l-1.60 1.60 -9.50 0.15 -9.45 0.15 -0.15 26.10 c-0.15 24.55 -0.20 26.20 -1.10 27.65 -0.50 0.85 -1.55 1.95 -2.30 2.40 -1.80 1.05 -5.35 1 -7.15 -0.10z"/>
  <path d="M488.65 722.50 c-2.45 -0.55 -5.90 -2.80 -7.80 -5 -3.20 -3.80 -3.55 -6 -3.50 -25 0 -10.90 0.20 -17.25 0.60 -18.10 1.10 -2.80 5.60 -4.25 8.50 -2.75 0.65 0.30 1.70 1.25 2.25 2 1 1.35 1.05 2.25 1.35 16.25 0.35 15.65 0.60 17.60 2.75 20.45 3.55 4.65 12.50 2.60 15.70 -3.60 1.25 -2.45 1.25 -2.65 1.50 -17 0.20 -12.75 0.35 -14.70 1.15 -15.90 2.15 -3.30 7.35 -3.80 9.90 -0.95 1.90 2.15 2.05 3.90 1.85 26.70 l-0.15 19.85 -1.70 1.75 c-1.50 1.55 -2.05 1.80 -4.05 1.80 -3.45 0 -5.55 -1.90 -5.90 -5.40 -0.10 -1.45 -0.35 -2.60 -0.55 -2.60 -0.15 0 -1.30 1.05 -2.55 2.30 -2.95 2.95 -4.65 4 -8.25 4.95 -3.10 0.80 -8.35 0.90 -11.10 0.25z"/>
  <path d="M537.60 721.30 l-1.85 -1.70 -0.15 -21.45 c-0.15 -18.95 -0.05 -21.65 0.70 -23.55 0.60 -1.65 1.25 -2.40 2.50 -2.90 4.55 -1.90 7.90 -0.05 8.95 4.95 l0.30 1.40 2.75 -3.05 c3.25 -3.45 5.30 -4.30 9.80 -3.80 4.85 0.50 8.80 2.75 9.95 5.75 0.95 2.35 -1.25 6.05 -3.90 6.70 -0.65 0.15 -2.75 -0.15 -4.75 -0.70 -4.60 -1.20 -5.50 -1.20 -7.90 0.05 -2.15 1.10 -3.55 3.30 -4.55 7.10 -0.30 1.15 -0.70 8.10 -0.90 15.40 -0.30 11.80 -0.40 13.40 -1.25 14.65 -1.25 1.85 -3.30 2.85 -5.80 2.85 -1.60 0 -2.40 -0.35 -3.90 -1.70z"/>
  <path d="M593.50 722.45 c-6.20 -1.20 -13.05 -6.60 -15.95 -12.50 -4 -8.25 -3.70 -19.65 0.80 -27.45 2.75 -4.80 7.20 -8.30 13.15 -10.30 4.15 -1.40 14.15 -1.25 18.20 0.20 10.50 3.90 16 12.35 15.95 24.60 0 8.35 -2 13.80 -7.05 18.90 -3.35 3.45 -6.90 5.40 -11.55 6.40 -3.65 0.75 -10.05 0.85 -13.55 0.15z m12.65 -11.10 c4.40 -2.60 6.30 -6.85 6.35 -14.20 0 -6.20 -1.10 -9.75 -4.05 -12.70 -4.75 -4.75 -13.70 -4.20 -17.45 1.05 -4.20 5.90 -4.15 17.15 0.05 23.05 1.20 1.70 4.15 3.75 6 4.10 2.65 0.60 6.95 -0.05 9.10 -1.30z"/>
  <path d="M712.10 722.50 c-6.70 -1.20 -13.20 -6.20 -16.15 -12.35 -4.20 -8.85 -3.60 -21.20 1.45 -28.95 4.20 -6.35 9.95 -9.45 18.70 -10.05 10.95 -0.75 19.30 3.70 23.70 12.60 1.65 3.40 1.85 4.10 1.90 8.15 0.05 5.05 -0.55 6.70 -2.95 8 -1.30 0.75 -3.65 0.85 -16.85 1 l-15.40 0.15 0 1.20 c0 2.15 1.95 6.50 3.60 8.10 2.90 2.70 4.75 3.40 9.15 3.35 4.65 0 7.15 -1.05 11.85 -4.90 3.30 -2.70 4.95 -3.40 6.80 -3 2.25 0.55 3.10 1.65 3.10 3.95 0 4.35 -5.15 9.50 -11.65 11.75 -3.60 1.25 -12.90 1.75 -17.25 1z m17.40 -30.35 c0 -1.65 -1.50 -5.85 -2.75 -7.70 -2.60 -4 -9.70 -5.50 -14.10 -3 -2.55 1.45 -3.95 3.30 -5.20 6.90 -1.70 5.05 -2.55 4.65 10.55 4.65 10.60 0 11.50 -0.05 11.50 -0.85z"/>
  <path d="M58.65 721 c-3.40 -2.05 -3.25 -0.20 -3.15 -34.05 0.05 -34.20 -0.15 -32.55 3.55 -34.25 3.50 -1.55 7.55 -0.25 9.30 2.95 0.80 1.45 0.90 3.85 1.05 28 l0.15 26.35 15 0 c15.85 0 16.50 0.10 18.60 2.40 1.35 1.45 1.60 4.15 0.60 6.25 -1.55 3.30 -1.80 3.35 -23.85 3.35 -18.60 0 -19.75 -0.05 -21.25 -1z"/>
  <path d="M418 721.10 c-3.55 -1.90 -3.45 -1.05 -3.50 -32.95 0 -32.40 -0.15 -31.25 3.75 -33.15 1.95 -0.95 3.10 -1 22.65 -1 22.35 0 23.15 0.10 24.90 2.70 1.15 1.85 0.70 5.05 -1 6.75 l-1.30 1.30 -17.50 0.15 -17.55 0.15 0.15 7.85 0.15 7.85 15.75 0.25 c16.35 0.25 17.35 0.40 18.50 2.50 0.65 1.20 0.65 4.80 0 6.05 -1.25 2.30 -2.50 2.45 -19 2.45 l-15.50 0 0 9.50 0 9.45 18.05 0.15 18.05 0.15 1.45 1.65 c2.15 2.35 2.05 5.10 -0.25 7.40 l-1.70 1.70 -22.20 0 c-20.60 0 -22.30 -0.05 -23.90 -0.90z"/>
  <path d="M114.75 664.40 c-1.60 -1.45 -1.90 -2.10 -2.10 -4.20 -0.25 -2.95 0.50 -4.50 2.80 -6.05 2.15 -1.45 4.60 -1.45 7.05 -0.10 2.25 1.25 3 2.70 3 5.75 0 1.80 -0.30 2.55 -1.65 4.05 -1.45 1.55 -2.05 1.85 -4.45 2.05 -2.60 0.20 -2.90 0.10 -4.65 -1.50z"/>
  <path d="M433.60 603.05 c-2.45 -0.65 -5.15 -3.05 -6.70 -6.05 l-1.40 -2.60 0 -50.20 c0 -27.55 0.15 -50.25 0.40 -50.35 0.20 -0.15 16.80 -0.30 36.85 -0.40 l36.50 -0.20 0.15 52.15 c0.10 33.55 -0.05 52.45 -0.35 53.05 -0.45 0.75 -1.40 0.95 -6.65 1.25 -5.60 0.30 -24.70 1.60 -41.85 2.80 -12.25 0.85 -15.30 0.95 -16.95 0.55z"/>
  <path d="M533.50 545.10 l0 -52 1.35 -0.25 c0.75 -0.15 14.05 -0.30 29.60 -0.30 15.55 -0.05 29.70 -0.20 31.40 -0.40 2.95 -0.25 3.10 -0.25 3.40 0.90 0.15 0.65 0.20 23.25 0.15 50.20 l-0.15 49 -1.75 0.35 c-0.95 0.20 -7.60 0.70 -14.75 1.15 -12.65 0.75 -36.75 2.40 -45.10 3.05 l-4.15 0.30 0 -52z"/>
  <path d="M630 541.25 l0 -49.25 13.65 0 c7.45 -0.05 20.70 -0.10 29.35 -0.15 l15.75 -0.10 0 47.50 0 47.50 -5.05 0.35 c-2.80 0.15 -8.95 0.55 -13.75 0.85 -4.80 0.30 -13.40 0.85 -19.20 1.25 -5.75 0.40 -12.80 0.85 -15.60 1.05 l-5.15 0.30 0 -49.30z"/>
  <path d="M716.40 584.70 c-0.15 -0.25 -0.30 -21.10 -0.35 -46.35 -0.05 -36.75 0.05 -45.90 0.55 -46.05 0.35 -0.15 12.25 -0.35 26.45 -0.50 l25.80 -0.35 0.30 2.40 c0.55 4.30 0.35 77.05 -0.20 79.70 -0.70 3.15 -4.35 7.10 -7.25 7.90 -1.75 0.45 -10.30 1.10 -32.20 2.55 -4 0.25 -8.50 0.60 -10.05 0.80 -1.55 0.15 -2.95 0.15 -3.05 -0.10z"/>
  <path d="M469 439.50 c-5.35 -0.20 -15.80 -0.40 -23.25 -0.45 -7.40 -0.05 -15 -0.20 -16.85 -0.40 l-3.40 -0.30 0 -55.15 c0 -45.50 0.10 -55.20 0.65 -55.20 0.40 0 3 0.20 5.90 0.50 2.85 0.25 10.05 0.80 15.95 1.25 5.90 0.45 14.25 1.10 18.50 1.50 4.25 0.40 12.95 1.05 19.25 1.50 6.35 0.45 12 1.05 12.65 1.30 l1.10 0.45 0 48.60 c0 26.75 -0.15 50.50 -0.35 52.80 l-0.30 4.10 -10.05 -0.10 c-5.55 -0.05 -14.45 -0.25 -19.80 -0.40z"/>
  <path d="M760.75 309.95 c-4.10 -0.45 -9.50 -1.10 -12 -1.40 -2.45 -0.35 -10.65 -1.25 -18.20 -2.10 -7.55 -0.80 -13.95 -1.65 -14.20 -1.80 -0.50 -0.30 -0.25 -92.40 0.25 -92.95 0.25 -0.20 26.30 4 42.30 6.85 3.40 0.60 7.05 2.70 8.75 5 0.60 0.80 1.10 2.80 1.40 5.25 0.65 5.35 0.35 81 -0.30 81.60 -0.30 0.20 -3.80 0.05 -8 -0.45z"/>
  <path d="M685.50 301.65 c-20 -2.30 -51.45 -5.65 -52.95 -5.65 -1.10 0 -2.10 -0.20 -2.25 -0.45 -0.35 -0.55 -0.45 -98.05 -0.10 -98.40 0.10 -0.10 9.15 1.30 20.15 3.15 10.95 1.85 24.05 4.05 29.15 4.90 l9.25 1.55 0 47.50 c0 41.85 -0.10 47.50 -0.75 47.55 -0.40 0 -1.55 -0.05 -2.50 -0.15z"/>
  <path d="M494.25 280.75 c-0.50 -0.20 -1.90 -0.35 -31 -3.50 -16.05 -1.70 -31.30 -3.45 -35.60 -4.05 l-2.15 -0.25 0 -54.95 c0 -46.15 0.10 -54.95 0.70 -55.15 0.35 -0.15 1.60 -0.05 2.70 0.20 1.10 0.25 4.10 0.75 6.70 1.15 6.90 1.10 61.45 10.25 62.75 10.55 l1.10 0.25 -0.10 52.90 -0.10 52.85 -2.25 0.10 c-1.25 0.05 -2.45 0 -2.75 -0.10z"/>
  <path d="M678.50 157.75 c-4.55 -0.95 -17 -3.40 -27.75 -5.50 -10.70 -2.10 -19.80 -4 -20.15 -4.20 -0.50 -0.30 -0.65 -10.25 -0.65 -49.25 0 -26.90 0.10 -49 0.25 -49.15 0.15 -0.15 5.50 1.10 11.90 2.75 6.40 1.70 17.50 4.55 24.65 6.35 16.95 4.30 18.50 5.05 20.90 9.50 l1.10 2 0 44.50 c0 44.15 0 44.50 -1 44.60 -0.55 0.05 -4.70 -0.65 -9.25 -1.60z"/>
  <path d="M469.25 116.45 c-14.85 -2.95 -30.70 -6.15 -35.25 -7.05 l-8.25 -1.65 -0.15 -48.95 c-0.05 -31.45 0.05 -49.60 0.40 -50.80 1 -3.75 7.90 -8.50 11.50 -7.85 0.70 0.10 9.25 2.25 19 4.75 9.75 2.50 22.95 5.90 29.25 7.50 6.35 1.65 12.05 3.20 12.65 3.55 l1.10 0.60 0 50.10 c0 27.55 -0.15 51.30 -0.30 52.75 -0.30 2.40 -0.45 2.60 -1.65 2.50 -0.70 0 -13.45 -2.50 -28.30 -5.45z"/>
 </g>
 <g fill="#1a3c87">
  <path d="M313.75 601.95 c-7.70 -0.55 -20.05 -1.35 -27.50 -1.85 l-13.50 -0.85 -0.15 -53.15 -0.10 -53.15 36.35 0.30 c20.05 0.20 36.70 0.40 37.05 0.55 0.50 0.15 0.60 10.05 0.45 50.60 -0.20 49.55 -0.25 50.40 -1.25 52.35 -1.15 2.30 -3.15 4.30 -5.45 5.45 -2.05 1.05 -7.40 1 -25.90 -0.25z"/>
  <path d="M235.50 596.85 c-0.15 -0.15 -4.65 -0.50 -10 -0.80 -5.35 -0.35 -16.25 -1.05 -24.25 -1.60 -7.95 -0.50 -16.75 -1.10 -19.50 -1.25 -2.75 -0.10 -5.95 -0.35 -7.10 -0.50 l-2.15 -0.25 0 -49.95 c0 -45.60 0.05 -49.90 0.80 -50.20 1.20 -0.45 64.20 0.30 64.50 0.75 0.10 0.25 0.25 23.65 0.25 52.05 l0 51.65 -1.15 0.15 c-0.65 0.10 -1.30 0.05 -1.40 -0.05z"/>
  <path d="M119.50 589.20 c-9.50 -0.65 -21.50 -1.45 -26.75 -1.80 l-9.50 -0.65 -0.15 -47.60 -0.10 -47.65 15.90 0 c8.75 0 22.05 0.15 29.50 0.35 l13.60 0.30 0 49.20 0 49.15 -2.60 -0.05 c-1.45 -0.05 -10.40 -0.60 -19.90 -1.25z"/>
  <path d="M44.75 584.25 c-4.65 -0.35 -14.10 -1 -20.95 -1.45 -9.90 -0.65 -12.95 -1.05 -14.65 -1.80 -2.55 -1.15 -4.45 -3.05 -5.70 -5.75 -0.90 -1.90 -0.95 -4.25 -0.95 -42.95 l0 -40.95 24.35 0.30 c13.45 0.20 25.35 0.35 26.55 0.35 l2.10 0 0 46.50 0 46.50 -1.10 -0.05 c-0.65 -0.05 -4.95 -0.40 -9.65 -0.70z"/>
  <path d="M272.60 386.95 l0.15 -53.20 5.50 -0.35 c3.05 -0.20 9.55 -0.70 14.50 -1.10 4.95 -0.45 13.30 -1.10 18.50 -1.55 5.25 -0.40 15.10 -1.20 21.90 -1.75 6.80 -0.55 12.60 -0.90 12.85 -0.75 0.70 0.40 0.65 109.60 0 110 -0.25 0.15 -5.05 0.40 -10.60 0.50 -5.60 0.15 -14.55 0.35 -19.90 0.50 -5.35 0.15 -17.25 0.40 -26.40 0.60 l-16.60 0.30 0.10 -53.20z"/>
  <path d="M2.50 269 c0 -45.40 -0.10 -43.50 2.90 -46.65 2.45 -2.60 4.60 -3.25 18.45 -5.60 7.35 -1.25 17.30 -2.95 22 -3.75 4.75 -0.85 8.85 -1.50 9.15 -1.50 0.35 0 0.50 15.55 0.50 46.75 0 29.90 -0.15 46.75 -0.50 46.75 -0.25 0 -11.45 1.25 -24.90 2.75 -13.45 1.50 -25.15 2.75 -26 2.75 l-1.60 0 0 -41.50z"/>
  <path d="M83.35 301.70 c-0.20 -0.20 -0.35 -21.65 -0.35 -47.70 l0 -47.30 8.40 -1.35 c4.60 -0.75 17.65 -2.90 29.05 -4.85 11.35 -1.90 20.85 -3.50 21.10 -3.50 0.25 0 0.40 20.70 0.35 49.40 l-0.15 49.35 -2 0.15 c-3.20 0.20 -52.85 5.60 -54.50 5.90 -0.85 0.15 -1.70 0.10 -1.90 -0.10z"/>
  <path d="M272.60 227.95 l0.15 -53.10 11.25 -1.90 c6.20 -1.05 18.25 -3.05 26.75 -4.50 8.55 -1.40 19.90 -3.30 25.25 -4.20 5.35 -0.90 9.85 -1.45 10 -1.25 0.15 0.25 0.25 25 0.25 55 0 48.05 -0.10 54.70 -0.75 55 -0.40 0.25 -8.60 1.25 -18.25 2.25 -9.60 1 -25.35 2.75 -35 3.80 -9.60 1.05 -18 1.95 -18.65 1.95 l-1.10 0 0.10 -53.05z"/>
  <path d="M83 115.65 c0 -29.65 0.20 -44.55 0.55 -45.85 0.60 -2.20 3.85 -5.95 5.85 -6.75 2.05 -0.80 51.25 -13.55 52.35 -13.55 0.15 0 0.25 22.15 0.25 49.25 l0 49.25 -1.10 0.25 c-2.25 0.50 -57.25 11.25 -57.60 11.25 -0.15 0 -0.30 -19.75 -0.30 -43.85z"/>
  <path d="M272.60 69 l0.15 -53.20 1.50 -0.40 c0.85 -0.20 11.65 -2.95 24 -6.10 12.40 -3.15 25.65 -6.55 29.50 -7.55 l7 -1.85 2.85 0.90 c3.40 1 6.05 3.05 7.55 5.85 l1.10 2.10 0 48.75 c0 26.80 -0.15 49.15 -0.40 49.65 -0.20 0.50 -0.95 0.85 -1.65 0.85 -0.70 0 -3 0.45 -5.10 0.95 -2.15 0.55 -6.90 1.55 -10.60 2.25 -3.70 0.70 -17.10 3.30 -29.75 5.80 -12.65 2.55 -23.75 4.70 -24.65 4.85 l-1.60 0.30 0.10 -53.15z"/>
 </g>
 <g fill="#8e908f">
  <path d="M742.50 445.45 c-9.20 -0.15 -18.85 -0.35 -21.35 -0.40 l-4.65 -0.05 0 -46.75 c0 -39.80 0.10 -46.75 0.70 -46.75 0.40 0 5.95 0.45 12.40 0.95 6.40 0.55 17.85 1.50 25.40 2.10 7.55 0.60 13.85 1.20 14 1.30 0.35 0.30 0.55 87.60 0.25 89.05 -0.25 1.05 -0.45 1.10 -5.15 1 -2.65 -0.05 -12.40 -0.25 -21.60 -0.45z"/>
  <path d="M679.50 443.65 c-2.90 -0.10 -15.10 -0.35 -27.15 -0.60 -12.05 -0.25 -22.05 -0.60 -22.20 -0.75 -0.40 -0.40 -0.45 -97.15 -0.10 -97.55 0.25 -0.20 25.40 1.65 48.70 3.65 l10 0.85 0 46.75 c0.05 27.35 -0.15 47 -0.40 47.40 -0.25 0.30 -1.20 0.55 -2.05 0.50 -0.85 -0.05 -3.90 -0.20 -6.80 -0.25z"/>
  <path d="M595.95 442.30 c-0.10 -0.15 -13.60 -0.50 -29.95 -0.80 -16.35 -0.25 -30.35 -0.65 -31.15 -0.80 l-1.35 -0.30 0 -51.60 c0 -28.40 0.10 -51.75 0.25 -51.85 0.10 -0.15 3.65 0.05 7.85 0.40 4.20 0.35 11.80 0.95 16.90 1.40 5.10 0.40 15.20 1.20 22.50 1.75 7.30 0.55 14.40 1.20 15.75 1.40 l2.50 0.35 0.15 49.70 c0.10 39.45 0 49.80 -0.50 50.15 -0.70 0.40 -2.60 0.55 -2.95 0.20z"/>
  <path d="M596.75 291.70 c-0.25 -0.10 -9.40 -1.20 -20.25 -2.45 -35.40 -4 -41.75 -4.75 -42.35 -5 -0.50 -0.15 -0.65 -11 -0.65 -51.75 0 -50.15 0 -51.50 0.95 -51.50 0.50 0 2.70 0.35 4.85 0.75 2.20 0.40 7.35 1.30 11.45 2 37.80 6.55 47.60 8.30 48.15 8.50 0.45 0.15 0.60 10.45 0.60 49.20 0 26.95 -0.15 49.30 -0.30 49.75 -0.30 0.75 -1.35 0.95 -2.45 0.50z"/>
  <path d="M567.50 135.70 c-16.90 -3.35 -31.50 -6.25 -32.35 -6.45 l-1.65 -0.30 0 -51.95 c0 -31.95 0.20 -52 0.45 -52 0.50 0 7.70 1.80 42.65 10.80 11.20 2.85 20.80 5.20 21.30 5.20 0.55 0 1.15 0.35 1.30 0.80 0.15 0.45 0.30 22.80 0.30 49.65 0 37.95 -0.15 49.05 -0.65 49.65 -0.50 0.65 -4.35 0 -31.35 -5.40z"/>
 </g>
 <g fill="#ffcc18">
  <path d="M2.60 400.90 l0.15 -45.10 5.75 -0.60 c3.15 -0.35 9.25 -0.85 13.50 -1.20 4.25 -0.30 11.80 -0.90 16.75 -1.25 4.95 -0.40 10.70 -0.80 12.75 -0.85 l3.75 -0.15 0.15 46.55 0.10 46.50 -20.35 0.60 c-11.25 0.35 -23.15 0.60 -26.55 0.60 l-6.10 0 0.10 -45.10z"/>
  <path d="M83 396.75 c0 -25.95 0.15 -47.30 0.40 -47.40 0.20 -0.15 5.30 -0.60 11.35 -1.05 6.05 -0.45 13.15 -1.05 15.75 -1.30 2.60 -0.30 9.35 -0.85 15 -1.25 5.65 -0.40 11.65 -0.85 13.40 -1.05 l3.10 -0.30 0 48.80 c0 38.10 -0.15 48.80 -0.60 49.10 -0.35 0.25 -10.10 0.55 -21.65 0.75 -11.55 0.20 -24.55 0.50 -28.85 0.60 l-7.90 0.25 0 -47.15z"/>
  <path d="M172.85 441.65 c-0.20 -0.15 -0.35 -22.65 -0.35 -49.90 l0 -49.60 2.40 -0.35 c1.30 -0.15 6.95 -0.65 12.60 -1.05 5.65 -0.40 12.60 -0.95 15.50 -1.25 2.90 -0.25 8.75 -0.70 13 -1 4.25 -0.30 9.55 -0.75 11.75 -1 5.75 -0.70 10.25 -0.65 10.30 0.15 0.20 5.35 -0.20 102.70 -0.45 102.95 -0.20 0.15 -11.95 0.55 -26.10 0.85 -29.85 0.65 -38.20 0.70 -38.65 0.20z"/>
  <path d="M172.85 291.65 c-0.20 -0.15 -0.35 -22.65 -0.35 -49.90 l0 -49.60 5.90 -1.10 c3.20 -0.55 11.15 -1.95 17.60 -3.05 12.35 -2.10 16.30 -2.80 20 -3.55 3 -0.60 17.20 -3 19.90 -3.30 1.55 -0.20 2.10 -0.10 2.10 0.40 0 0.40 0 23.65 0.05 51.70 l0 51 -1.35 0.35 c-0.80 0.20 -4.10 0.60 -7.40 0.90 -3.35 0.30 -9.40 0.95 -13.55 1.50 -4.10 0.50 -12.65 1.55 -19 2.25 -6.30 0.70 -14.05 1.60 -17.15 2 -6.60 0.85 -6.35 0.85 -6.75 0.40z"/>
  <path d="M172.50 141.40 c-0.25 -22.25 0.15 -99.20 0.50 -99.65 0.30 -0.35 1.45 -0.85 2.65 -1.15 3.35 -0.90 21.50 -5.50 28.10 -7.15 3.30 -0.80 7.90 -2 10.25 -2.65 9.75 -2.65 23.50 -5.95 23.80 -5.70 0.15 0.15 0.25 23.65 0.25 52.20 -0.05 49.20 -0.10 51.95 -0.90 52.10 -3.60 0.65 -25.45 4.90 -43.05 8.40 -11.60 2.30 -21.25 4.20 -21.35 4.20 -0.15 0 -0.25 -0.30 -0.25 -0.60z"/>
 </g>
</svg>