<?xml version="1.0" encoding="UTF-8"?>
<svg version="1.1" xmlns="http://www.w3.org/2000/svg" width="153" height="122">
<path d="M0 0 C1.794375 0.144375 3.58875 0.28875 5.4375 0.4375 C6.95150391 0.55931641 6.95150391 0.55931641 8.49609375 0.68359375 C11 1 11 1 12 2 C12.09975032 4.51136104 12.13882183 6.98903415 12.125 9.5 C12.12886719 10.20253906 12.13273437 10.90507813 12.13671875 11.62890625 C12.12661378 16.87338622 12.12661378 16.87338622 11 18 C3.70588235 18.23529412 3.70588235 18.23529412 0 17 C0 11.39 0 5.78 0 0 Z " fill="#F0991E" transform="translate(83,49)"/>
<path d="M0 0 C3.96 0 7.92 0 12 0 C12.02684679 2.64590014 12.04676357 5.29153096 12.0625 7.9375 C12.07087891 8.69224609 12.07925781 9.44699219 12.08789062 10.22460938 C12.09652441 12.14994313 12.05224333 14.07535581 12 16 C11 17 11 17 8.49609375 17.09765625 C5.6640625 17.06510417 2.83203125 17.03255208 0 17 C0 11.39 0 5.78 0 0 Z " fill="#EA9827" transform="translate(83,74)"/>
<path d="M0 0 C5.94 0.99 5.94 0.99 12 2 C12 7.28 12 12.56 12 18 C8.34649162 19.82675419 3.94412788 18.45509168 0 18 C0 12.06 0 6.12 0 0 Z " fill="#EF9C29" transform="translate(83,24)"/>
<path d="M0 0 C8.625 0.75 8.625 0.75 12 3 C12.22137393 5.62697064 12.28162025 8.00893964 12.1875 10.625 C12.17396484 11.33140625 12.16042969 12.0378125 12.14648438 12.765625 C12.1111104 14.51074128 12.05730221 16.25546608 12 18 C8.3176685 19.84116575 3.86306473 17.84195 0 17 C0 11.39 0 5.78 0 0 Z " fill="#F39819" transform="translate(83,0)"/>
<path d="M0 0 C3.63 0 7.26 0 11 0 C11 5.61 11 11.22 11 17 C3.28515625 17.09765625 3.28515625 17.09765625 1 17 C0 16 0 16 -0.09765625 12.40234375 C-0.0909822 10.91403133 -0.07902183 9.42573568 -0.0625 7.9375 C-0.05798828 7.17888672 -0.05347656 6.42027344 -0.04882812 5.63867188 C-0.0370068 3.75908129 -0.01907078 1.87953101 0 0 Z " fill="#19357C" transform="translate(60,74)"/>
<path d="M0 0 C0.02684312 2.81256281 0.04676188 5.62487241 0.0625 8.4375 C0.07087891 9.23994141 0.07925781 10.04238281 0.08789062 10.86914062 C0.0965143 12.91295221 0.0522815 14.95683902 0 17 C-1.66342837 18.66342837 -3.7825709 18.36048097 -6.0625 18.5625 C-8.5065625 18.7790625 -8.5065625 18.7790625 -11 19 C-11 13.39 -11 7.78 -11 2 C-9.370625 1.67 -7.74125 1.34 -6.0625 1 C-5.14597656 0.814375 -4.22945313 0.62875 -3.28515625 0.4375 C-1 0 -1 0 0 0 Z " fill="#1C3B88" transform="translate(71,24)"/>
<path d="M0 0 C0 5.61 0 11.22 0 17 C-3.63 17.66 -7.26 18.32 -11 19 C-11 13.39 -11 7.78 -11 2 C-4 0 -4 0 0 0 Z " fill="#1A3B88" transform="translate(71,0)"/>
<path d="M0 0 C0 5.61 0 11.22 0 17 C-3.63 17.33 -7.26 17.66 -11 18 C-11 12.39 -11 6.78 -11 1 C-3 0 -3 0 0 0 Z " fill="#173072" transform="translate(71,49)"/>
<path d="M0 0 C3.63 0 7.26 0 11 0 C11.02685095 2.47923801 11.04676547 4.9581884 11.0625 7.4375 C11.07087891 8.14455078 11.07925781 8.85160156 11.08789062 9.58007812 C11.09653588 11.38693559 11.05220011 13.19387603 11 15 C10 16 10 16 7.71484375 16.09765625 C5.14322917 16.06510417 2.57161458 16.03255208 0 16 C0 10.72 0 5.44 0 0 Z " fill="#EB9824" transform="translate(99,74)"/>
<path d="M0 0 C0 5.61 0 11.22 0 17 C-3.3 17 -6.6 17 -10 17 C-10 11.72 -10 6.44 -10 1 C-2.25 0 -2.25 0 0 0 Z " fill="#F3C82B" transform="translate(55,50)"/>
<path d="M0 0 C3.3 0 6.6 0 10 0 C10 5.28 10 10.56 10 16 C6.7 16 3.4 16 0 16 C0 10.72 0 5.44 0 0 Z " fill="#1C387D" transform="translate(45,74)"/>
<path d="M0 0 C0 5.28 0 10.56 0 16 C-3.3 16.66 -6.6 17.32 -10 18 C-10 12.72 -10 7.44 -10 2 C-5 0 -5 0 0 0 Z " fill="#FBCC17" transform="translate(55,4)"/>
<path d="M0 0 C3.3 0 6.6 0 10 0 C10 5.28 10 10.56 10 16 C3.06640625 16.09765625 3.06640625 16.09765625 1 16 C0 15 0 15 -0.09765625 11.62109375 C-0.09098369 10.22652923 -0.07902532 8.83198257 -0.0625 7.4375 C-0.05798828 6.72658203 -0.05347656 6.01566406 -0.04882812 5.28320312 C-0.03700864 3.52209987 -0.01907263 1.76103964 0 0 Z " fill="#999A99" transform="translate(99,51)"/>
<path d="M0 0 C0 5.28 0 10.56 0 16 C-3 17 -3 17 -10 17 C-10 12.05 -10 7.1 -10 2 C-3 0 -3 0 0 0 Z " fill="#FDCB15" transform="translate(55,27)"/>
<path d="M0 0 C4.95 0.99 4.95 0.99 10 2 C10 6.95 10 11.9 10 17 C6.7 16.67 3.4 16.34 0 16 C0 10.72 0 5.44 0 0 Z " fill="#999A99" transform="translate(99,27)"/>
<path d="M0 0 C7.75 0.875 7.75 0.875 10 2 C10 6.95 10 11.9 10 17 C1.125 16.125 1.125 16.125 0 15 C-0.07313567 12.46950598 -0.09247527 9.96695163 -0.0625 7.4375 C-0.05798828 6.72658203 -0.05347656 6.01566406 -0.04882812 5.28320312 C-0.03700864 3.52209987 -0.01907263 1.76103964 0 0 Z " fill="#979998" transform="translate(99,4)"/>
<path d="M0 0 C0 4.95 0 9.9 0 15 C-6 17 -6 17 -10 17 C-10 12.38 -10 7.76 -10 3 C-2.25 0 -2.25 0 0 0 Z " fill="#193B89" transform="translate(41,7)"/>
<path d="M0 0 C3.3 0 6.6 0 10 0 C10 4.95 10 9.9 10 15 C3.06640625 15.09765625 3.06640625 15.09765625 1 15 C0 14 0 14 -0.09765625 10.83984375 C-0.08025391 8.90818359 -0.08025391 8.90818359 -0.0625 6.9375 C-0.05347656 5.64714844 -0.04445313 4.35679688 -0.03515625 3.02734375 C-0.02355469 2.02832031 -0.01195313 1.02929688 0 0 Z " fill="#132B62" transform="translate(31,74)"/>
<path d="M0 0 C3.46679688 0.04882812 3.46679688 0.04882812 6.93359375 0.09765625 C6.93359375 5.04765625 6.93359375 9.99765625 6.93359375 15.09765625 C3.63359375 15.09765625 0.33359375 15.09765625 -3.06640625 15.09765625 C-3.09326037 12.78521833 -3.11273466 10.47269355 -3.12890625 8.16015625 C-3.14050781 6.87238281 -3.15210937 5.58460937 -3.1640625 4.2578125 C-3.03692125 0.1435218 -3.03692125 0.1435218 0 0 Z " fill="#F3C82A" transform="translate(34.06640625,51.90234375)"/>
<path d="M0 0 C0 4.95 0 9.9 0 15 C-6.93359375 15.87890625 -6.93359375 15.87890625 -9 16 C-10 15 -10 15 -10.09765625 11.83984375 C-10.08025391 9.90818359 -10.08025391 9.90818359 -10.0625 7.9375 C-10.05347656 6.64714844 -10.04445313 5.35679688 -10.03515625 4.02734375 C-10.02355469 3.02832031 -10.01195313 2.02929688 -10 1 C-7 0 -7 0 0 0 Z " fill="#1B397E" transform="translate(41,30)"/>
<path d="M0 0 C4.455 0.99 4.455 0.99 9 2 C9 6.95 9 11.9 9 17 C6.03 16.67 3.06 16.34 0 16 C0 10.72 0 5.44 0 0 Z " fill="#EB9723" transform="translate(114,29)"/>
<path d="M0 0 C4.455 0.99 4.455 0.99 9 2 C9 6.95 9 11.9 9 17 C6.03 16.67 3.06 16.34 0 16 C0 10.72 0 5.44 0 0 Z " fill="#ED991D" transform="translate(114,7)"/>
<path d="M0 0 C2.97 0 5.94 0 9 0 C9 4.95 9 9.9 9 15 C6.03 15 3.06 15 0 15 C0 10.05 0 5.1 0 0 Z " fill="#E59929" transform="translate(114,74)"/>
<path d="M0 0 C6.15234375 -0.09765625 6.15234375 -0.09765625 8 0 C9 1 9 1 9.09765625 4.16015625 C9.08605469 5.44792969 9.07445313 6.73570313 9.0625 8.0625 C9.05347656 9.35285156 9.04445313 10.64320312 9.03515625 11.97265625 C9.02355469 12.97167969 9.01195313 13.97070312 9 15 C6.03 15 3.06 15 0 15 C0 10.05 0 5.1 0 0 Z " fill="#8E8F8F" transform="translate(114,52)"/>
<path d="M0 0 C2.97 0 5.94 0 9 0 C9 4.62 9 9.24 9 14 C2.84765625 14.87890625 2.84765625 14.87890625 1 15 C0 14 0 14 -0.09765625 10.83984375 C-0.08025391 8.90818359 -0.08025391 8.90818359 -0.0625 6.9375 C-0.05347656 5.64714844 -0.04445313 4.35679688 -0.03515625 3.02734375 C-0.02355469 2.02832031 -0.01195313 1.02929688 0 0 Z " fill="#F4C727" transform="translate(19,53)"/>
<path d="M0 0 C0 4.62 0 9.24 0 14 C-4.455 14.495 -4.455 14.495 -9 15 C-9.08078641 12.87561661 -9.13909141 10.7503677 -9.1875 8.625 C-9.22230469 7.44164062 -9.25710937 6.25828125 -9.29296875 5.0390625 C-9.19628906 4.03617188 -9.09960938 3.03328125 -9 2 C-6 0 -6 0 0 0 Z " fill="#0F2867" transform="translate(28,32)"/>
<path d="M0 0 C2.97 0 5.94 0 9 0 C9 4.62 9 9.24 9 14 C2.84765625 14.09765625 2.84765625 14.09765625 1 14 C0 13 0 13 -0.09765625 10.05859375 C-0.08605469 8.86363281 -0.07445313 7.66867188 -0.0625 6.4375 C-0.05347656 5.23996094 -0.04445313 4.04242188 -0.03515625 2.80859375 C-0.02355469 1.88175781 -0.01195313 0.95492187 0 0 Z " fill="#102A6A" transform="translate(19,74)"/>
<path d="M0 0 C6 0 6 0 8 1 C8 5.62 8 10.24 8 15 C2 15 2 15 0 14 C0 9.38 0 4.76 0 0 Z " fill="#EF9A22" transform="translate(127,32)"/>
<path d="M0 0 C2.64 0 5.28 0 8 0 C8 4.62 8 9.24 8 14 C5.36 14 2.72 14 0 14 C0 9.38 0 4.76 0 0 Z " fill="#E69726" transform="translate(127,74)"/>
<path d="M0 0 C2.64 0 5.28 0 8 0 C8 4.62 8 9.24 8 14 C5.36 14 2.72 14 0 14 C0 9.38 0 4.76 0 0 Z " fill="#8D8F8E" transform="translate(127,53)"/>
<path d="M0 0 C1.32 0 2.64 0 4 0 C4 4.62 4 9.24 4 14 C1.03 14 -1.94 14 -5 14 C-5.65187534 8.78499725 -4.1009384 5.85154663 -1.484375 1.5390625 C-0.99453125 1.03117187 -0.5046875 0.52328125 0 0 Z " fill="#F49817" transform="translate(89,27)"/>
<path d="M0 0 C0 3.63 0 7.26 0 11 C-5.75 11.125 -5.75 11.125 -8 10 C-8 7.36 -8 4.72 -8 2 C-4.91190305 0.23537317 -3.76687864 0 0 0 Z " fill="#193C89" transform="translate(69,54)"/>
<path d="M0 0 C0.02684312 2.81256281 0.04676188 5.62487241 0.0625 8.4375 C0.07087891 9.23994141 0.07925781 10.04238281 0.08789062 10.86914062 C0.0965143 12.91295221 0.0522815 14.95683902 0 17 C-1.66342837 18.66342837 -3.7825709 18.36048097 -6.0625 18.5625 C-7.44115234 18.68818359 -7.44115234 18.68818359 -8.84765625 18.81640625 C-9.55792969 18.87699219 -10.26820312 18.93757813 -11 19 C-10.505 17.515 -10.505 17.515 -10 16 C-7.36 16 -4.72 16 -2 16 C-2.33 12.7 -2.66 9.4 -3 6 C-3.99 6.33 -4.98 6.66 -6 7 C-6.66 6.34 -7.32 5.68 -8 5 C-7.34 5 -6.68 5 -6 5 C-6 4.34 -6 3.68 -6 3 C-7.65 3.33 -9.3 3.66 -11 4 C-11 3.34 -11 2.68 -11 2 C-9.35440244 1.66550467 -7.70851502 1.33243501 -6.0625 1 C-5.14597656 0.814375 -4.22945313 0.62875 -3.28515625 0.4375 C-1 0 -1 0 0 0 Z " fill="#142D6C" transform="translate(71,24)"/>
<path d="M0 0 C0 5.28 0 10.56 0 16 C-3 17 -3 17 -10 17 C-10 12.05 -10 7.1 -10 2 C-3 0 -3 0 0 0 Z M-8 2 C-8 6.62 -8 11.24 -8 16 C-6.02 15.67 -4.04 15.34 -2 15 C-2 10.71 -2 6.42 -2 2 C-3.98 2 -5.96 2 -8 2 Z " fill="#ECC743" transform="translate(55,27)"/>
<path d="M0 0 C3.3 0 6.6 0 10 0 C10 0.66 10 1.32 10 2 C7.36 2 4.72 2 2 2 C2 3.32 2 4.64 2 6 C4.31 6 6.62 6 9 6 C9 6.66 9 7.32 9 8 C6.69 8 4.38 8 2 8 C2 9.65 2 11.3 2 13 C4.64 13 7.28 13 10 13 C10 13.66 10 14.32 10 15 C6.7 15 3.4 15 0 15 C0 10.05 0 5.1 0 0 Z " fill="#E9843C" transform="translate(80,98)"/>
<path d="M0 0 C0 4.95 0 9.9 0 15 C-6 17 -6 17 -10 17 C-10 12.38 -10 7.76 -10 3 C-9.34 2.67 -8.68 2.34 -8 2 C-8.01160156 2.77085938 -8.02320313 3.54171875 -8.03515625 4.3359375 C-8.04417969 5.33882812 -8.05320313 6.34171875 -8.0625 7.375 C-8.07410156 8.37273438 -8.08570313 9.37046875 -8.09765625 10.3984375 C-8.18006602 12.98432453 -8.18006602 12.98432453 -7 15 C-5.35 15 -3.7 15 -2 15 C-2.33 11.04 -2.66 7.08 -3 3 C-4.32 2.67 -5.64 2.34 -7 2 C-2.25 0 -2.25 0 0 0 Z " fill="#1B2E61" transform="translate(41,7)"/>
<path d="M0 0 C0 5.61 0 11.22 0 17 C-3.63 17.66 -7.26 18.32 -11 19 C-11 13.39 -11 7.78 -11 2 C-4 0 -4 0 0 0 Z M-2 2 C-2 2.99 -2 3.98 -2 5 C-4.66666667 4.33333333 -7.33333333 3.66666667 -10 3 C-10 7.62 -10 12.24 -10 17 C-5.545 16.505 -5.545 16.505 -1 16 C-1 11.38 -1 6.76 -1 2 C-1.33 2 -1.66 2 -2 2 Z " fill="#172E6A" transform="translate(71,0)"/>
<path d="M0 0 C1.98 0 3.96 0 6 0 C6 3.96 6 7.92 6 12 C4.02 12 2.04 12 0 12 C0 8.04 0 4.08 0 0 Z " fill="#1A3B8C" transform="translate(33,75)"/>
<path d="M0 0 C2.31 0 4.62 0 7 0 C9 2 9 2 9.25 4.9375 C9 8 9 8 7 11 C5.68 11 4.36 11 3 11 C2.67 12.32 2.34 13.64 2 15 C1.34 15 0.68 15 0 15 C0 10.05 0 5.1 0 0 Z M4 2 C3.34 2.66 2.68 3.32 2 4 C2 5.32 2 6.64 2 8 C3.94603274 8.59070014 3.94603274 8.59070014 6 9 C7.29633621 7.93354885 7.29633621 7.93354885 7.0625 5.4375 C7.041875 4.633125 7.02125 3.82875 7 3 C6.01 2.67 5.02 2.34 4 2 Z " fill="#E67D41" transform="translate(120,102)"/>
<path d="M0 0 C3.3 0 6.6 0 10 0 C10 5.28 10 10.56 10 16 C3.06640625 16.09765625 3.06640625 16.09765625 1 16 C0 15 0 15 -0.09765625 11.62109375 C-0.09098369 10.22652923 -0.07902532 8.83198257 -0.0625 7.4375 C-0.05798828 6.72658203 -0.05347656 6.01566406 -0.04882812 5.28320312 C-0.03700864 3.52209987 -0.01907263 1.76103964 0 0 Z M2 1 C2 5.29 2 9.58 2 14 C4.31 14 6.62 14 9 14 C9 9.71 9 5.42 9 1 C6.69 1 4.38 1 2 1 Z " fill="#79797A" transform="translate(99,51)"/>
<path d="M0 0 C4.95 0.99 4.95 0.99 10 2 C10 6.95 10 11.9 10 17 C6.7 16.67 3.4 16.34 0 16 C0 10.72 0 5.44 0 0 Z M2 2 C2 6.29 2 10.58 2 15 C4.31 15 6.62 15 9 15 C9.05391993 13.20866022 9.09275571 11.41686101 9.125 9.625 C9.14820312 8.62726562 9.17140625 7.62953125 9.1953125 6.6015625 C9.27216848 3.83737827 9.27216848 3.83737827 7 2 C5.35 2 3.7 2 2 2 Z " fill="#707170" transform="translate(99,27)"/>
<path d="M0 0 C0.66 0 1.32 0 2 0 C2.33 2.31 2.66 4.62 3 7 C3.99 6.01 4.98 5.02 6 4 C6.99 4.33 7.98 4.66 9 5 C8.34 5.66 7.68 6.32 7 7 C7.36276645 9.82957829 8.09694764 12.29084291 9 15 C8.01 15 7.02 15 6 15 C4.3125 13 4.3125 13 3 11 C2.67 12.32 2.34 13.64 2 15 C1.34 15 0.68 15 0 15 C0 10.05 0 5.1 0 0 Z " fill="#D78657" transform="translate(39,98)"/>
<path d="M0 0 C1.32 0 2.64 0 4 0 C4 5.28 4 10.56 4 16 C0.7 16.66 -2.6 17.32 -6 18 C-6 12.72 -6 7.44 -6 2 C-4.35 1.67 -2.7 1.34 -1 1 C-1.33 1.66 -1.66 2.32 -2 3 C-2.66 3 -3.32 3 -4 3 C-4 6.96 -4 10.92 -4 15 C-1.69 15 0.62 15 3 15 C3 10.38 3 5.76 3 1 C2.01 0.67 1.02 0.34 0 0 Z " fill="#EAC647" transform="translate(51,4)"/>
<path d="M0 0 C7.75 0.875 7.75 0.875 10 2 C10 6.95 10 11.9 10 17 C1.125 16.125 1.125 16.125 0 15 C-0.07313567 12.46950598 -0.09247527 9.96695163 -0.0625 7.4375 C-0.05798828 6.72658203 -0.05347656 6.01566406 -0.04882812 5.28320312 C-0.03700864 3.52209987 -0.01907263 1.76103964 0 0 Z M2 2 C1.67 5.96 1.34 9.92 1 14 C5.56671088 16.18569534 5.56671088 16.18569534 9 16 C9 11.71 9 7.42 9 3 C6.69 2.67 4.38 2.34 2 2 Z " fill="#7B7C7B" transform="translate(99,4)"/>
<path d="M0 0 C2.5 -0.375 2.5 -0.375 5 0 C7 3 7 3 7 6 C4.69 6 2.38 6 0 6 C0 6.66 0 7.32 0 8 C2.31 8 4.62 8 7 8 C6.01 9.485 6.01 9.485 5 11 C2.03 10.505 2.03 10.505 -1 10 C-2.25 3.375 -2.25 3.375 0 0 Z M1 2 C1 2.66 1 3.32 1 4 C1.99 4 2.98 4 4 4 C4 3.34 4 2.68 4 2 C3.01 2 2.02 2 1 2 Z " fill="#EA813C" transform="translate(133,102)"/>
<path d="M0 0 C2.5625 0.1875 2.5625 0.1875 4.5625 2.1875 C4.90740322 6.24011287 4.86413882 7.73504176 2.5625 11.1875 C0.0625 11.5625 0.0625 11.5625 -2.4375 11.1875 C-4.4375 8.1875 -4.4375 8.1875 -4.125 4.5625 C-3.2464725 0.24972865 -3.2464725 0.24972865 0 0 Z M-1.4375 2.1875 C-1.7675 3.8375 -2.0975 5.4875 -2.4375 7.1875 C-0.9525 8.1775 -0.9525 8.1775 0.5625 9.1875 C1.2225 8.5275 1.8825 7.8675 2.5625 7.1875 C2.24208603 4.58469432 2.24208603 4.58469432 1.5625 2.1875 C0.5725 2.1875 -0.4175 2.1875 -1.4375 2.1875 Z " fill="#D68751" transform="translate(113.4375,101.8125)"/>
<path d="M0 0 C0 3.96 0 7.92 0 12 C-1.65 12 -3.3 12 -5 12 C-5 8.37 -5 4.74 -5 1 C-2 0 -2 0 0 0 Z " fill="#193C8C" transform="translate(26,33)"/>
<path d="M0 0 C2.33294775 -0.04241723 4.66702567 -0.04092937 7 0 C8 1 8 1 8.09765625 3.28515625 C8.08605469 4.20167969 8.07445312 5.11820312 8.0625 6.0625 C8.05347656 6.98160156 8.04445313 7.90070313 8.03515625 8.84765625 C8.02355469 9.55792969 8.01195312 10.26820312 8 11 C7.34 11 6.68 11 6 11 C5.67 8.36 5.34 5.72 5 3 C4.34 3 3.68 3 3 3 C2.67 5.64 2.34 8.28 2 11 C1.34 11 0.68 11 0 11 C0 7.37 0 3.74 0 0 Z " fill="#D98354" transform="translate(29,102)"/>
<path d="M0 0 C1.65 0 3.3 0 5 0 C5 3.63 5 7.26 5 11 C3.35 11 1.7 11 0 11 C0 7.37 0 3.74 0 0 Z " fill="#193C8D" transform="translate(21,75)"/>
<path d="M0 0 C0.66 0 1.32 0 2 0 C2.33 2.64 2.66 5.28 3 8 C3.66 8 4.32 8 5 8 C5.33 5.36 5.66 2.72 6 0 C6.66 0 7.32 0 8 0 C8 3.63 8 7.26 8 11 C5.66705225 11.04241723 3.33297433 11.04092937 1 11 C0 10 0 10 -0.09765625 7.71484375 C-0.08605469 6.79832031 -0.07445313 5.88179688 -0.0625 4.9375 C-0.05347656 4.01839844 -0.04445313 3.09929687 -0.03515625 2.15234375 C-0.02355469 1.44207031 -0.01195313 0.73179688 0 0 Z " fill="#E58444" transform="translate(92,102)"/>
<path d="M0 0 C3.96 0 7.92 0 12 0 C12 0.66 12 1.32 12 2 C10.35 2 8.7 2 7 2 C7 6.29 7 10.58 7 15 C6.34 15 5.68 15 5 15 C5 10.71 5 6.42 5 2 C3.35 2 1.7 2 0 2 C0 1.34 0 0.68 0 0 Z " fill="#D88852" transform="translate(60,98)"/>
<path d="M0 0 C3.96388638 -0.07622858 7.1273408 0.0318352 11 1 C11 6.28 11 11.56 11 17 C10.34 17.33 9.68 17.66 9 18 C8.34 17.34 7.68 16.68 7 16 C7.66 16 8.32 16 9 16 C9 11.38 9 6.76 9 2 C6.03 1.67 3.06 1.34 0 1 C0 0.67 0 0.34 0 0 Z " fill="#CF8B32" transform="translate(84,25)"/>
<path d="M0 0 C0.66 0 1.32 0 2 0 C2 4.29 2 8.58 2 13 C3.98 13 5.96 13 8 13 C8 13.66 8 14.32 8 15 C5.36 15 2.72 15 0 15 C0 10.05 0 5.1 0 0 Z " fill="#D08B5F" transform="translate(15,98)"/>
<path d="M0 0 C0.99 0.33 1.98 0.66 3 1 C3.02685095 3.47923801 3.04676547 5.9581884 3.0625 8.4375 C3.07087891 9.14455078 3.07925781 9.85160156 3.08789062 10.58007812 C3.09653588 12.38693559 3.05220011 14.19387603 3 16 C2 17 2 17 -1.5625 17.0625 C-2.696875 17.041875 -3.83125 17.02125 -5 17 C-2 15 -2 15 1 15 C0.67 10.05 0.34 5.1 0 0 Z " fill="#CE8A3A" transform="translate(92,50)"/>
<path d="M0 0 C2.475 0.99 2.475 0.99 5 2 C5 6.95 5 11.9 5 17 C2.3333581 18.33332095 0.83319697 17.67102033 -2 17 C-2 16.67 -2 16.34 -2 16 C-0.35 16 1.3 16 3 16 C3 11.38 3 6.76 3 2 C2.01 1.67 1.02 1.34 0 1 C0 0.67 0 0.34 0 0 Z " fill="#D08D38" transform="translate(90,1)"/>
<path d="M0 0 C0.33 0 0.66 0 1 0 C1 4.29 1 8.58 1 13 C2.32 13 3.64 13 5 13 C4.34 11.68 3.68 10.36 3 9 C4.32 9 5.64 9 7 9 C7.33 10.98 7.66 12.96 8 15 C2.25 15.125 2.25 15.125 0 14 C0 9.38 0 4.76 0 0 Z " fill="#D79233" transform="translate(127,32)"/>
<path d="M0 0 C0.66 0.33 1.32 0.66 2 1 C1.01 1.33 0.02 1.66 -1 2 C-1 5.96 -1 9.92 -1 14 C0.32 14.33 1.64 14.66 3 15 C1.34385343 15.38218767 -0.32457024 15.71395102 -2 16 C-3 15 -3 15 -3.09765625 11.83984375 C-3.08025391 9.90818359 -3.08025391 9.90818359 -3.0625 7.9375 C-3.05347656 6.64714844 -3.04445313 5.35679688 -3.03515625 4.02734375 C-3.02355469 3.02832031 -3.01195313 2.02929688 -3 1 C-2.01 0.67 -1.02 0.34 0 0 Z " fill="#0D275F" transform="translate(34,30)"/>
<path d="M0 0 C0.33 0 0.66 0 1 0 C1.33 4.29 1.66 8.58 2 13 C4.64 13 7.28 13 10 13 C10 13.66 10 14.32 10 15 C6.7 15 3.4 15 0 15 C0 10.05 0 5.1 0 0 Z " fill="#DD884E" transform="translate(80,98)"/>
<path d="M0 0 C0 3.3 0 6.6 0 10 C-0.33 9.34 -0.66 8.68 -1 8 C-3.01669827 6.86649466 -3.01669827 6.86649466 -5 6 C-3.68 5.67 -2.36 5.34 -1 5 C-3.475 4.01 -3.475 4.01 -6 3 C-6 2.01 -6 1.02 -6 0 C-3 -1 -3 -1 0 0 Z " fill="#EC9315" transform="translate(135,33)"/>
<path d="M0 0 C1.98 0 3.96 0 6 0 C6 0.66 6 1.32 6 2 C5.01 2.33 4.02 2.66 3 3 C2.67 5.64 2.34 8.28 2 11 C1.34 11 0.68 11 0 11 C0 7.37 0 3.74 0 0 Z " fill="#E2854A" transform="translate(102,102)"/>
<path d="M0 0 C0.66 0 1.32 0 2 0 C2 4.95 2 9.9 2 15 C1.34 15 0.68 15 0 15 C0 10.05 0 5.1 0 0 Z " fill="#E88443" transform="translate(56,98)"/>
<path d="M0 0 C0.66 0 1.32 0 2 0 C1.125 4.875 1.125 4.875 0 6 C-1.66617115 6.04063832 -3.33388095 6.042721 -5 6 C-5.33 4.68 -5.66 3.36 -6 2 C-4.68 2.33 -3.36 2.66 -2 3 C-1.34 2.01 -0.68 1.02 0 0 Z " fill="#E28348" transform="translate(116,107)"/>
<path d="M0 0 C1.32 0.33 2.64 0.66 4 1 C3.67 1.99 3.34 2.98 3 4 C2.34 4 1.68 4 1 4 C1.33 8.29 1.66 12.58 2 17 C1.34 17 0.68 17 0 17 C0 11.39 0 5.78 0 0 Z " fill="#EA9C35" transform="translate(83,0)"/>
<path d="M0 0 C0.99 0.33 1.98 0.66 3 1 C2.67 4.96 2.34 8.92 2 13 C1.34 12.67 0.68 12.34 0 12 C0 8.04 0 4.08 0 0 Z " fill="#838483" transform="translate(99,29)"/>
<path d="M0 0 C2 3 2 3 2 5 C4.31 5 6.62 5 9 5 C8.01 6.485 8.01 6.485 7 8 C4.03 7.505 4.03 7.505 1 7 C0.67 4.69 0.34 2.38 0 0 Z " fill="#D78754" transform="translate(131,105)"/>
<path d="M0 0 C1.98 0 3.96 0 6 0 C6 0.99 6 1.98 6 3 C5.071875 3.1546875 5.071875 3.1546875 4.125 3.3125 C1.63473516 3.87525373 1.63473516 3.87525373 0 7 C0 4.69 0 2.38 0 0 Z " fill="#F19A13" transform="translate(115,75)"/>
<path d="M0 0 C0.66 0 1.32 0 2 0 C1.67 2.31 1.34 4.62 1 7 C-0.65 7.33 -2.3 7.66 -4 8 C-3.67 7.01 -3.34 6.02 -3 5 C-2.34 5 -1.68 5 -1 5 C-0.67 3.35 -0.34 1.7 0 0 Z " fill="#D68452" transform="translate(127,105)"/>
<path d="M0 0 C0.66 0 1.32 0 2 0 C2 3.63 2 7.26 2 11 C1.34 11 0.68 11 0 11 C0 7.37 0 3.74 0 0 Z " fill="#C78D65" transform="translate(25,102)"/>
<path d="M0 0 C1.32 0 2.64 0 4 0 C4 4.62 4 9.24 4 14 C3.67 14 3.34 14 3 14 C2.93941406 13.37351562 2.87882812 12.74703125 2.81640625 12.1015625 C2.73261719 11.28429687 2.64882812 10.46703125 2.5625 9.625 C2.44068359 8.40683594 2.44068359 8.40683594 2.31640625 7.1640625 C2.10909886 4.95727195 2.10909886 4.95727195 1 3 C1.33 2.34 1.66 1.68 2 1 C1.34 0.67 0.68 0.34 0 0 Z " fill="#E8921F" transform="translate(90,75)"/>
<path d="M0 0 C0.99 0 1.98 0 3 0 C3 1.98 3 3.96 3 6 C1.68 5.67 0.36 5.34 -1 5 C-1 2 -1 2 0 0 Z " fill="#EC982C" transform="translate(120,18)"/>
<path d="M0 0 C4 4.75 4 4.75 4 7 C3.01 7 2.02 7 1 7 C-0.0625 4.625 -0.0625 4.625 -1 2 C-0.67 1.34 -0.34 0.68 0 0 Z " fill="#D5794D" transform="translate(44,106)"/>
<path d="M0 0 C0.66 0 1.32 0 2 0 C2 0.66 2 1.32 2 2 C1.34 2 0.68 2 0 2 C0 1.34 0 0.68 0 0 Z " fill="#B99174" transform="translate(25,98)"/>
</svg>
